<?xml version="1.0" standalone="no"?>
<!DOCTYPE svg PUBLIC "-//W3C//DTD SVG 20010904//EN"
 "http://www.w3.org/TR/2001/REC-SVG-20010904/DTD/svg10.dtd">
<svg version="1.0" xmlns="http://www.w3.org/2000/svg"
 width="1204.000000pt" height="1204.000000pt" viewBox="0 0 1204.000000 1204.000000"
 preserveAspectRatio="xMidYMid meet">
<metadata>
Created by potrace 1.11, written by Peter Selinger 2001-2013
</metadata>
<g transform="translate(0.000000,1204.000000) scale(0.100000,-0.100000)"
fill="#000000" stroke="none">
<path d="M6057 10868 c-18 -27 -581 -988 -712 -1213 -32 -55 -66 -113 -76
-130 -10 -16 -36 -61 -59 -100 -22 -38 -51 -88 -65 -110 -14 -22 -28 -47 -32
-55 -4 -8 -46 -80 -93 -160 -48 -80 -234 -397 -415 -705 -498 -852 -630 -1077
-720 -1230 -45 -77 -261 -446 -480 -820 -218 -374 -428 -732 -465 -795 -37
-63 -214 -365 -392 -670 -513 -876 -560 -956 -758 -1295 -103 -176 -197 -336
-208 -355 -11 -19 -115 -197 -231 -395 l-211 -360 38 -35 c21 -19 121 -105
222 -192 102 -86 195 -164 206 -175 12 -10 44 -37 70 -59 27 -23 60 -52 74
-64 14 -11 34 -29 45 -38 214 -181 351 -297 355 -302 3 -3 48 -41 100 -85 52
-44 97 -82 100 -85 3 -3 64 -55 135 -115 72 -60 146 -124 165 -142 19 -18 40
-33 45 -33 6 1 125 188 266 418 141 229 406 660 589 957 183 297 361 585 395
640 121 197 414 673 499 810 47 77 91 147 96 155 6 8 37 58 68 110 32 52 179
291 327 530 147 239 350 568 450 730 100 162 235 381 300 485 65 105 127 206
139 226 11 20 56 92 99 161 l78 126 -82 204 c-45 111 -87 217 -94 233 -7 17
-27 66 -45 110 -98 247 -364 904 -376 929 -8 16 -14 33 -14 38 0 4 -9 27 -19
51 -11 23 -52 123 -91 222 -39 99 -77 194 -84 210 -13 28 -127 311 -175 433
-11 28 -19 52 -17 52 2 0 19 -28 36 -62 18 -35 46 -88 63 -118 16 -30 50 -93
75 -140 25 -47 62 -116 83 -153 22 -38 39 -70 39 -72 0 -2 42 -82 93 -177 52
-95 120 -222 152 -283 32 -60 61 -114 65 -120 4 -5 35 -64 70 -130 35 -66 66
-124 70 -130 4 -5 33 -59 65 -120 32 -60 75 -141 97 -178 21 -38 38 -70 38
-73 0 -2 40 -77 88 -166 49 -90 111 -203 137 -253 47 -89 83 -156 149 -277 18
-35 49 -92 68 -128 19 -36 51 -94 70 -130 19 -36 54 -101 78 -145 23 -44 55
-102 70 -130 15 -27 45 -84 67 -125 73 -136 125 -234 148 -275 12 -22 46 -85
75 -140 74 -141 101 -188 112 -202 6 -7 7 -13 3 -13 -5 0 -1 -8 7 -17 8 -10
18 -25 21 -33 4 -8 31 -60 61 -115 30 -55 72 -134 94 -175 22 -41 81 -151 131
-243 50 -93 91 -170 91 -172 0 -2 17 -34 38 -72 22 -37 59 -106 84 -153 25
-47 59 -110 75 -140 17 -30 48 -89 70 -130 22 -41 52 -95 65 -120 32 -57 105
-193 155 -290 49 -92 108 -202 138 -255 12 -22 43 -78 68 -126 66 -125 122
-229 224 -419 17 -30 54 -100 83 -155 29 -55 56 -104 60 -110 4 -5 10 -18 13
-27 6 -16 -134 -17 -2468 -15 -1361 1 -2475 -1 -2475 -4 0 -4 35 -15 78 -24
42 -9 192 -44 332 -77 140 -32 334 -77 430 -99 96 -22 238 -55 316 -74 78 -19
152 -36 165 -39 47 -9 247 -56 260 -61 8 -2 25 -6 39 -9 14 -2 66 -14 115 -26
50 -11 118 -28 153 -36 34 -7 90 -21 125 -29 34 -8 103 -24 152 -35 50 -12
101 -24 115 -26 14 -3 52 -12 85 -21 33 -8 71 -17 85 -19 14 -3 41 -9 60 -14
19 -5 46 -11 60 -14 14 -2 74 -16 134 -31 60 -15 116 -28 125 -30 18 -3 209
-48 310 -72 36 -8 72 -16 80 -18 9 -2 95 -22 191 -45 96 -23 184 -43 195 -45
11 -3 34 -8 50 -12 17 -4 32 -7 35 -8 3 -1 21 -5 40 -9 100 -23 250 -57 285
-66 22 -6 49 -12 60 -15 11 -2 110 -25 220 -50 110 -26 207 -48 215 -50 8 -2
65 -15 125 -29 61 -15 151 -35 200 -47 50 -11 146 -33 215 -50 218 -52 365
-85 392 -89 4 -1 22 -6 40 -11 18 -5 48 -12 67 -15 19 -3 45 -10 58 -15 14 -5
33 -9 45 -9 16 0 136 90 304 229 17 14 40 33 50 41 10 9 127 102 259 209 132
106 249 200 260 209 11 10 54 44 95 77 41 32 82 65 90 72 47 40 163 134 295
239 83 65 152 121 155 124 3 3 38 31 78 63 l73 59 -35 61 c-18 34 -42 76 -52
94 -24 40 -175 306 -201 353 -11 19 -121 213 -245 430 -124 217 -236 415 -250
440 -14 25 -98 173 -188 330 -90 157 -174 305 -188 330 -14 25 -42 74 -62 110
-21 36 -47 81 -57 100 -39 69 -277 487 -356 625 -44 77 -89 156 -100 175 -82
147 -249 440 -289 508 -26 45 -48 85 -48 87 0 3 -18 34 -40 70 -22 36 -40 67
-40 70 0 3 -13 26 -29 52 -16 27 -42 71 -58 99 -34 62 -211 373 -223 394 -26
44 -81 141 -103 180 -13 25 -41 74 -62 110 -21 36 -54 94 -73 130 -19 36 -41
72 -48 81 -8 8 -14 18 -14 21 0 3 -90 165 -201 359 -111 195 -211 372 -224
394 -12 22 -69 121 -125 220 -56 99 -114 200 -128 225 -14 25 -45 78 -69 118
-24 41 -43 75 -43 77 0 1 -43 79 -96 171 -53 93 -108 189 -122 214 -13 25 -42
74 -62 110 -21 36 -48 83 -60 105 -12 22 -68 119 -123 215 -55 96 -111 195
-125 220 -14 25 -79 140 -145 255 -66 116 -131 230 -145 255 -45 80 -57 101
-207 365 -81 143 -149 262 -151 263 -1 2 -9 -7 -17 -20z"/>
<path d="M6052 5843 c-16 -24 -163 -263 -211 -345 -9 -16 -72 -120 -141 -233
-69 -113 -136 -225 -150 -248 -47 -80 -212 -352 -252 -417 -22 -36 -48 -78
-58 -95 -10 -16 -95 -158 -190 -315 -246 -405 -338 -556 -430 -710 -45 -74
-144 -238 -220 -364 -77 -127 -137 -232 -135 -235 7 -6 3445 -7 3456 0 6 3 -5
32 -24 65 -18 32 -36 66 -40 74 -4 8 -18 33 -30 55 -28 48 -60 106 -159 285
-42 74 -87 155 -100 180 -14 25 -59 106 -100 180 -232 417 -442 795 -461 830
-11 19 -35 64 -55 100 -19 36 -51 94 -72 130 -21 36 -55 97 -75 135 -57 104
-527 949 -530 953 -2 2 -12 -9 -23 -25z"/>
</g>
</svg>
